<svg width="186" height="156" viewBox="0 0 186 156" fill="none" xmlns="http://www.w3.org/2000/svg">
<path d="M136 0.228516C163.614 0.228516 186 22.6143 186 50.2285C186 88.0916 160.997 114.434 148.091 126.14C140.388 133.125 132.91 138.537 127.454 142.175C124.677 144.026 122.298 145.501 120.51 146.57C119.613 147.107 118.855 147.547 118.261 147.886C117.963 148.055 117.706 148.201 117.491 148.32L117.369 148.389L117.236 148.461L117.202 148.48C117.159 148.504 117.119 148.526 117.082 148.547L117.028 148.576C117.024 148.579 117.018 148.582 117.013 148.585L117.003 148.591C116.991 148.597 116.979 148.603 94.4023 107.295L116.979 148.604C116.979 148.604 103.671 155.5 93 155.5C82.3286 155.5 69.0215 148.604 69.0215 148.604L91.5977 107.295C69.0215 148.603 69.0091 148.597 68.9971 148.591L68.9814 148.581L68.9717 148.576L68.918 148.547L68.8457 148.507L68.7979 148.48L68.7637 148.461C68.687 148.419 68.6016 148.372 68.5088 148.32C68.2943 148.201 68.0366 148.055 67.7393 147.886C67.1451 147.547 66.3875 147.107 65.4902 146.57C63.7018 145.501 61.3227 144.026 58.5459 142.175C53.0897 138.537 45.6115 133.125 37.9092 126.14C25.0034 114.434 0 88.0916 0 50.2285C0 22.6143 22.3858 0.228516 50 0.228516C68.2895 0.228516 84.2825 10.0501 93 24.7051C101.717 10.0501 117.711 0.228516 136 0.228516Z" fill="#FDCFFE"/>
<path d="M77 76.2285C77 76.2285 79.4708 78.3169 83.4 79.7284C86.2342 80.7466 90.1885 81.2152 92.8118 81.2284C95.5194 81.2419 99.3028 80.7621 102.224 79.7284C106.212 78.3169 109 76.2285 109 76.2285" stroke="#2A83FF" stroke-width="4" stroke-linecap="round"/>
<path d="M64 63.2285C64 63.2285 65.081 64.8992 66.8 66.0284C68.04 66.843 69.77 67.2179 70.9176 67.2284C72.1022 67.2392 73.7575 66.8553 75.0353 66.0284C76.7803 64.8992 78 63.2285 78 63.2285" stroke="#2A83FF" stroke-width="4" stroke-linecap="round"/>
<path d="M108 63.2285C108 63.2285 109.081 64.8992 110.8 66.0284C112.04 66.843 113.77 67.2179 114.918 67.2284C116.102 67.2392 117.757 66.8553 119.035 66.0284C120.78 64.8992 122 63.2285 122 63.2285" stroke="#2A83FF" stroke-width="4" stroke-linecap="round"/>
</svg>
