<svg width="185" height="184" viewBox="0 0 185 184" fill="none" xmlns="http://www.w3.org/2000/svg">
<path d="M91.5312 0C100.688 0 109.118 3.10836 115.826 8.32617C117.357 8.14647 118.914 8.05176 120.493 8.05176C137.744 8.05176 152.416 19.0827 157.848 34.4746C171.027 40.9057 180.107 54.4352 180.107 70.0869C180.107 73.222 179.74 76.2714 179.052 79.1963C182.707 85.1944 184.814 92.2402 184.814 99.7783C184.814 110.968 180.172 121.071 172.711 128.273C172.26 147.072 158.71 162.623 140.839 166.154C133.714 176.638 121.693 183.525 108.062 183.525C102.944 183.525 98.0534 182.554 93.5635 180.787C88.787 182.83 83.5284 183.963 78.0049 183.963C64.7831 183.963 53.0764 177.483 45.8828 167.526C27.8313 164.497 13.9213 149.258 12.9375 130.591C4.98897 123.347 0 112.912 0 101.311C4.636e-05 94.1821 1.88445 87.4941 5.18066 81.7158C4.31044 78.4522 3.84375 75.0231 3.84375 71.4854C3.84385 56.2371 12.4625 43.0034 25.0928 36.3848C30.2065 20.4296 45.1603 8.87891 62.8135 8.87891C64.004 8.87892 65.1819 8.93521 66.3457 9.03809C73.1907 3.39153 81.9649 7.30447e-05 91.5312 0Z" fill="#B5A9FF"/>
<path d="M63 78C63 78 64.081 76.3293 65.8 75.2001C67.04 74.3855 68.77 74.0106 69.9176 74.0001C71.1022 73.9893 72.7575 74.3732 74.0353 75.2001C75.7803 76.3293 77 78 77 78" stroke="#2A83FF" stroke-width="4" stroke-linecap="round"/>
<path d="M107 78C107 78 108.081 76.3293 109.8 75.2001C111.04 74.3855 112.77 74.0106 113.918 74.0001C115.102 73.9893 116.757 74.3732 118.035 75.2001C119.78 76.3293 121 78 121 78" stroke="#2A83FF" stroke-width="4" stroke-linecap="round"/>
<path d="M105.639 83C107.285 83 108.178 84.8471 106.986 85.9825C103.055 89.7288 97.9049 92 92.2666 92C86.6284 92 81.4787 89.7288 77.5472 85.9825C76.3556 84.8471 77.2485 83 78.8944 83H105.639Z" fill="#2A83FF"/>
</svg>
