<?xml version="1.0" encoding="UTF-8"?>
<svg id="_레이어_2" data-name="레이어 2" xmlns="http://www.w3.org/2000/svg" viewBox="0 0 74.44 73.05">
  <defs>
    <style>
      .cls-1 {
        fill: #bfdaff;
      }

      .cls-2 {
        fill: #fff;
        stroke: #2a83ff;
        stroke-miterlimit: 10;
        stroke-width: 8px;
      }

      .cls-3 {
        fill: #2a83ff;
      }
    </style>
  </defs>
  <g id="_레이어_1-2" data-name="레이어 1">
    <g>
      <circle class="cls-2" cx="38.1" cy="36.7" r="32.35"/>
      <path class="cls-3" d="M42.66,19.88l3.92,6.63,7.52,1.68c3.93.88,5.49,5.66,2.82,8.68l-5.09,5.78.72,7.67c.38,4.01-3.68,6.96-7.38,5.36l-7.07-3.06-7.07,3.06c-3.7,1.6-7.76-1.35-7.38-5.36l.72-7.67-5.09-5.78c-2.67-3.02-1.11-7.8,2.82-8.68l7.52-1.68,3.92-6.63c2.05-3.47,7.07-3.47,9.13,0Z"/>
      <path class="cls-1" d="M15.48,1.63l2.46,4.15,4.71,1.05c2.46.55,3.44,3.54,1.77,5.44l-3.19,3.62.45,4.8c.24,2.51-2.31,4.36-4.63,3.36l-4.43-1.92-4.43,1.92c-2.32,1-4.86-.85-4.63-3.36l.45-4.8-3.19-3.62c-1.67-1.89-.7-4.89,1.77-5.44l4.71-1.05,2.46-4.15c1.29-2.17,4.43-2.17,5.72,0Z"/>
    </g>
  </g>
</svg>