<svg width="242" height="112" viewBox="0 0 242 112" fill="none" xmlns="http://www.w3.org/2000/svg">
<g clip-path="url(#clip0_489_180)">
<path d="M45.22 67.8V105.39C45.22 108.99 43.2 111.15 39.82 111.15C36.44 111.15 34.49 108.99 34.49 105.39V91.28H10.73V105.39C10.73 108.99 8.71 111.15 5.4 111.15C2.09 111.15 0 108.99 0 105.39V67.8C0 64.2 2.02 62.04 5.4 62.04C8.78 62.04 10.73 64.2 10.73 67.8V81.48H34.49V67.8C34.49 64.2 36.51 62.04 39.82 62.04C43.13 62.04 45.22 64.2 45.22 67.8Z" fill="#2A83FF"/>
<path d="M89.07 80.91V105.9C89.07 109.14 87.2 111.16 84.1 111.16C81.51 111.16 79.71 109.65 79.28 107.13H79.14C76.69 110.01 73.02 111.59 68.41 111.59C58.4 111.59 51.78 104.46 51.78 93.44C51.78 82.42 58.4 75.29 68.41 75.29C73.02 75.29 76.69 76.87 79.14 79.75H79.28C79.71 77.16 81.51 75.72 84.1 75.72C87.2 75.72 89.07 77.66 89.07 80.9V80.91ZM79.2 93.44C79.2 88.11 75.53 84.3 70.41 84.3C65.29 84.3 61.84 87.97 61.84 93.44C61.84 98.91 65.37 102.58 70.41 102.58C75.45 102.58 79.2 98.76 79.2 93.44Z" fill="#2A83FF"/>
<path d="M106.42 80.91V105.9C106.42 109.14 104.55 111.16 101.45 111.16C98.35 111.16 96.55 109.14 96.55 105.9V80.91C96.55 77.67 98.42 75.73 101.45 75.73C104.48 75.73 106.42 77.67 106.42 80.91Z" fill="#2A83FF"/>
<path d="M167.47 90.49V105.9C167.47 109.14 165.6 111.16 162.5 111.16C159.4 111.16 157.6 109.14 157.6 105.9V91.64C157.6 86.81 155.66 84.3 151.84 84.3C147.81 84.3 145.58 87.32 145.58 92.58V105.9C145.58 109.14 143.71 111.16 140.68 111.16C137.65 111.16 135.71 109.14 135.71 105.9V91.64C135.71 86.81 133.77 84.3 129.95 84.3C126.13 84.3 123.76 87.32 123.76 92.58V105.9C123.76 109.14 121.89 111.16 118.79 111.16C115.69 111.16 113.89 109.14 113.89 105.9V80.91C113.89 77.67 115.76 75.73 118.79 75.73C121.38 75.73 123.18 77.1 123.69 79.33H123.83C125.92 76.74 129.01 75.3 132.69 75.3C137.3 75.3 140.54 77.03 142.63 80.2H142.77C145.15 77.03 148.89 75.3 153.93 75.3C163.08 75.3 167.47 80.48 167.47 90.49Z" fill="#2A83FF"/>
<path d="M103.44 57.12L105.13 59.97L108.36 60.69C110.05 61.07 110.72 63.12 109.57 64.42L107.38 66.9L107.69 70.2C107.85 71.92 106.11 73.19 104.52 72.51L101.48 71.2L98.44 72.51C96.85 73.2 95.1 71.93 95.27 70.2L95.58 66.9L93.39 64.42C92.24 63.12 92.91 61.07 94.6 60.69L97.83 59.97L99.52 57.12C100.4 55.63 102.56 55.63 103.44 57.12Z" fill="#2A83FF"/>
</g>
<g clip-path="url(#clip1_489_180)">
<path d="M205.1 69.05C222.966 69.05 237.45 54.5664 237.45 36.7C237.45 18.8336 222.966 4.35001 205.1 4.35001C187.234 4.35001 172.75 18.8336 172.75 36.7C172.75 54.5664 187.234 69.05 205.1 69.05Z" fill="white" stroke="#2A83FF" stroke-width="8" stroke-miterlimit="10"/>
<path d="M209.66 19.88L213.58 26.51L221.1 28.19C225.03 29.07 226.59 33.85 223.92 36.87L218.83 42.65L219.55 50.32C219.93 54.33 215.87 57.28 212.17 55.68L205.1 52.62L198.03 55.68C194.33 57.28 190.27 54.33 190.65 50.32L191.37 42.65L186.28 36.87C183.61 33.85 185.17 29.07 189.1 28.19L196.62 26.51L200.54 19.88C202.59 16.41 207.61 16.41 209.67 19.88H209.66Z" fill="#2A83FF"/>
<path d="M182.48 1.63L184.94 5.78L189.65 6.83C192.11 7.38 193.09 10.37 191.42 12.27L188.23 15.89L188.68 20.69C188.92 23.2 186.37 25.05 184.05 24.05L179.62 22.13L175.19 24.05C172.87 25.05 170.33 23.2 170.56 20.69L171.01 15.89L167.82 12.27C166.15 10.38 167.12 7.38 169.59 6.83L174.3 5.78L176.76 1.63C178.05 -0.539998 181.19 -0.539998 182.48 1.63Z" fill="#BFDAFF"/>
</g>
<defs>
<clipPath id="clip0_489_180">
<rect width="167.47" height="55.58" fill="white" transform="translate(0 56)"/>
</clipPath>
<clipPath id="clip1_489_180">
<rect width="74.44" height="73.05" fill="white" transform="translate(167)"/>
</clipPath>
</defs>
</svg>
