<svg class="svg-icon" style="width: 1em; height: 1em;vertical-align: middle;fill: currentColor;overflow: hidden;" viewBox="0 0 1024 1024" version="1.1" xmlns="http://www.w3.org/2000/svg"><path d="M208.571429 808h132V411.428571H208.571429v396.571429z m140.571428-518.857143q-0.571429-29.714286-20.571428-49.142857t-53.142858-19.428571-54 19.428571-20.857142 49.142857q0 29.142857 20.285714 48.857143T273.714286 357.714286h0.571428q33.714286 0 54.285715-19.714286t20.571428-48.857143z m334.285714 518.857143h132v-227.428571q0-88-41.714285-133.142858t-110.285715-45.142857q-77.714286 0-119.428571 66.857143h1.142857V411.428571H413.142857q1.714286 37.714286 0 396.571429h132v-221.714286q0-21.714286 4-32 8.571429-20 25.714286-34t42.285714-14q66.285714 0 66.285714 89.714286v212z m267.428572-570.285714v548.571428q0 68-48.285714 116.285715T786.285714 950.857143H237.714286q-68 0-116.285715-48.285714T73.142857 786.285714V237.714286q0-68 48.285714-116.285715T237.714286 73.142857h548.571428q68 0 116.285715 48.285714T950.857143 237.714286z"  /></svg>