<svg width="191" height="186" viewBox="0 0 191 186" fill="none" xmlns="http://www.w3.org/2000/svg">
<path d="M135.657 44.1978L170.073 51.3269C189.961 55.4513 197.824 79.7338 184.139 94.8113L160.469 120.897L164.36 155.968C166.591 176.235 146.023 191.231 127.522 182.846L95.5 168.314L63.4778 182.846C44.9773 191.258 24.4091 176.235 26.6401 155.968L30.5306 120.897L6.8609 94.8113C-6.82402 79.7338 1.03868 55.4513 20.9267 51.3269L55.3431 44.1978L72.7281 13.5238C82.7673 -4.20324 108.205 -4.20324 118.245 13.5238L135.63 44.1978H135.657Z" fill="#E8FD94"/>
<circle cx="74.5" cy="83.5" r="6.5" fill="#2A83FF"/>
<circle cx="117.5" cy="83.5" r="6.5" fill="#2A83FF"/>
<path d="M109.355 93.6729C111.038 93.6729 111.905 95.5804 110.62 96.6679C106.727 99.9625 101.692 101.949 96.1922 101.949C90.693 101.949 85.6585 99.9625 81.7658 96.668C80.4807 95.5804 81.347 93.6729 83.0305 93.6729H109.355Z" fill="#2A83FF"/>
</svg>
