<svg width="30" height="29" viewBox="0 0 30 29" fill="none" xmlns="http://www.w3.org/2000/svg">
<path d="M11.3339 1.80553C13.3361 -0.272844 16.6639 -0.272843 18.6661 1.80553L19.148 2.3057C19.9933 3.18322 21.1254 3.7284 22.3386 3.84222L23.0301 3.90709C25.9034 4.17666 27.9782 6.77842 27.6016 9.63967L27.511 10.3282C27.352 11.5363 27.6316 12.7613 28.299 13.7808L28.6794 14.3618C30.2602 16.7764 29.5197 20.0207 27.0479 21.5103L26.453 21.8687C25.4094 22.4976 24.626 23.48 24.245 24.6374L24.0279 25.2971C23.1257 28.0384 20.1275 29.4823 17.4218 28.4785L16.7707 28.2369C15.6283 27.8131 14.3717 27.8131 13.2293 28.2369L12.5782 28.4785C9.87247 29.4823 6.87425 28.0384 5.97207 25.2971L5.75496 24.6374C5.37404 23.48 4.59061 22.4976 3.54698 21.8687L2.95213 21.5103C0.480328 20.0207 -0.26017 16.7764 1.32055 14.3618L1.70096 13.7808C2.36837 12.7613 2.64797 11.5363 2.48898 10.3282L2.39836 9.63967C2.02179 6.77842 4.09663 4.17666 6.96994 3.90709L7.66141 3.84222C8.87457 3.7284 10.0067 3.18322 10.852 2.3057L11.3339 1.80553Z" fill="#FDCFFE"/>
</svg>
