<svg width="42" height="41" viewBox="0 0 42 41" fill="none" xmlns="http://www.w3.org/2000/svg">
<path d="M17.3339 1.80553C19.3361 -0.27284 22.6639 -0.272842 24.6661 1.80553L27.0744 4.30539C27.9198 5.18292 29.0519 5.7281 30.265 5.84192L33.7211 6.16615C36.5944 6.43572 38.6692 9.03748 38.2926 11.8987L37.8397 15.3403C37.6807 16.5483 37.9603 17.7733 38.6277 18.7928L40.529 21.697C42.1097 24.1115 41.3692 27.3558 38.8974 28.8454L35.9244 30.637C34.8807 31.2659 34.0973 32.2483 33.7164 33.4057L32.6312 36.7029C31.729 39.4442 28.7308 40.8881 26.0251 39.8843L22.7707 38.6769C21.6283 38.2531 20.3717 38.2531 19.2293 38.6769L15.9749 39.8843C13.2692 40.8881 10.2709 39.4442 9.36877 36.7029L8.28363 33.4057C7.90271 32.2483 7.11928 31.2659 6.07565 30.637L3.10257 28.8454C0.630765 27.3558 -0.109737 24.1115 1.47099 21.697L3.37228 18.7928C4.03969 17.7733 4.31929 16.5483 4.1603 15.3403L3.70737 11.8987C3.33081 9.03748 5.40564 6.43572 8.27895 6.16615L11.735 5.84192C12.9481 5.7281 14.0802 5.18292 14.9256 4.30539L17.3339 1.80553Z" fill="#B5A9FF"/>
</svg>
